<svg width="182" height="116" viewBox="0 0 182 116" fill="none" xmlns="http://www.w3.org/2000/svg">
<path d="M99.1032 19.8379H84.9672L82.4592 6.87915C82.0032 4.70208 80.7492 2.73234 78.6972 1.4883C76.6452 0.244261 74.2512 -0.27409 71.8572 0.140591L7.56122 10.4039C2.54522 11.2333 -0.760776 15.4838 0.151224 20.0453L10.0692 70.9473C10.5252 73.1243 11.8932 74.9904 13.8312 76.3381C15.4272 77.3748 17.1372 77.8932 19.0752 77.8932C19.6452 77.8932 20.2152 77.8932 20.6712 77.7895L24.6612 77.1675V79.9666C24.6612 84.5281 28.7652 88.2602 33.7812 88.2602H99.1032C104.119 88.2602 108.223 84.5281 108.223 79.9666V28.2352C108.223 23.57 104.119 19.8379 99.1032 19.8379ZM93.8592 37.6692C93.8592 40.5719 91.3512 42.8527 88.1592 42.8527C84.9672 42.8527 82.4592 40.5719 82.4592 37.6692C82.4592 34.7664 84.9672 32.4857 88.1592 32.4857C91.2372 32.4857 93.8592 34.8701 93.8592 37.6692ZM19.1892 70.9473C18.6192 71.0509 18.1632 70.8436 18.0492 70.7399C17.8212 70.6363 17.4792 70.3253 17.3652 69.8069L7.56122 18.9049C7.44722 18.0755 8.01722 17.3498 8.81522 17.2462L73.1112 6.87915C73.2252 6.87915 73.3392 6.87915 73.3392 6.87915C73.7952 6.87915 74.1372 7.08649 74.2512 7.19016C74.4792 7.29383 74.8212 7.60484 74.9352 8.12319L77.2152 19.9416H33.7812C28.7652 19.9416 24.6612 23.6737 24.6612 28.2352V70.1179L19.1892 70.9473ZM99.1032 81.3143H33.7812C32.8692 81.3143 32.1852 80.6923 32.1852 79.8629V65.7638L53.5032 43.4747C54.0732 42.8527 55.0992 42.8527 55.6692 43.4747L68.8932 57.1591C69.1212 57.3665 69.2352 57.6775 69.1212 57.9885L67.4112 65.0381C67.2972 65.5564 67.9812 65.8674 68.3232 65.4528L81.5472 52.2867C82.0032 51.872 82.6872 51.872 83.0292 52.2867L100.585 69.8069V79.8629C100.585 80.6923 99.9012 81.3143 99.1032 81.3143Z" fill="#E9E9E9"/>
<g clip-path="url(#clip0_38:2)">
<path d="M157.324 69.0756V71.5001C157.324 71.9071 157.486 72.2974 157.773 72.5852C158.06 72.8729 158.449 73.0346 158.855 73.0346C159.262 73.0346 159.651 72.8729 159.938 72.5852C160.225 72.2974 160.387 71.9071 160.387 71.5001V43.8794C160.387 41.8446 159.58 39.8931 158.144 38.4542C156.708 37.0154 154.761 36.207 152.73 36.207H100.668C98.6374 36.207 96.69 37.0154 95.2542 38.4542C93.8184 39.8931 93.0117 41.8446 93.0117 43.8794V83.776C93.0117 85.8108 93.8184 87.7624 95.2542 89.2012C96.69 90.6401 98.6374 91.4484 100.668 91.4484H140.48C140.887 91.4484 141.276 91.2867 141.563 90.999C141.85 90.7112 142.012 90.3209 142.012 89.9139C142.012 89.507 141.85 89.1166 141.563 88.8289C141.276 88.5411 140.887 88.3794 140.48 88.3794H100.668C99.4496 88.3794 98.2812 87.8944 97.4197 87.0311C96.5582 86.1678 96.0742 84.9969 96.0742 83.776V81.3515L115.919 61.3419L125.597 71.0398L133.253 78.6815C133.537 78.9664 133.923 79.1264 134.325 79.1264C134.727 79.1264 135.112 78.9664 135.397 78.6815C135.681 78.3966 135.841 78.0103 135.841 77.6074C135.841 77.2045 135.681 76.8181 135.397 76.5332L128.874 69.9656L143.512 55.2346L157.324 69.0756ZM143.512 51.5519C143.312 51.5494 143.112 51.5891 142.928 51.6684C142.743 51.7477 142.577 51.8648 142.44 52.0122L126.699 67.7867L116.991 58.0888C116.854 57.9413 116.688 57.8242 116.504 57.7449C116.319 57.6656 116.12 57.626 115.919 57.6284V57.6284C115.505 57.6294 115.109 57.795 114.817 58.0888L96.0742 76.9936V43.8794C96.0742 42.6585 96.5582 41.4876 97.4197 40.6243C98.2812 39.761 99.4496 39.276 100.668 39.276H152.73C153.949 39.276 155.117 39.761 155.979 40.6243C156.84 41.4876 157.324 42.6585 157.324 43.8794V64.7177L144.584 51.9815C144.445 51.8396 144.278 51.7282 144.093 51.6543C143.909 51.5803 143.711 51.5455 143.512 51.5519V51.5519ZM132.824 51.5519C132.824 52.1588 132.645 52.7522 132.308 53.2569C131.972 53.7616 131.493 54.1549 130.934 54.3872C130.374 54.6195 129.758 54.6803 129.164 54.5619C128.57 54.4434 128.025 54.1511 127.596 53.7219C127.168 53.2927 126.876 52.7459 126.758 52.1506C126.64 51.5553 126.701 50.9382 126.932 50.3774C127.164 49.8166 127.557 49.3373 128.06 49.0001C128.564 48.6629 129.156 48.4829 129.762 48.4829C130.574 48.4829 131.353 48.8062 131.927 49.3818C132.502 49.9573 132.824 50.7379 132.824 51.5519ZM158.855 76.1036C155.203 76.1117 151.702 77.5693 149.12 80.1575C146.537 82.7457 145.082 86.2537 145.074 89.9139C145.081 93.0362 146.163 96.0605 148.137 98.4763V114.466C148.14 114.711 148.2 114.952 148.312 115.17C148.423 115.388 148.583 115.578 148.78 115.724C148.977 115.866 149.205 115.957 149.446 115.99C149.686 116.022 149.931 115.994 150.158 115.908L158.855 112.931L167.553 115.816C167.715 115.845 167.881 115.845 168.043 115.816C168.36 115.818 168.671 115.722 168.931 115.54C169.105 115.413 169.252 115.253 169.362 115.069C169.473 114.884 169.545 114.679 169.574 114.466V98.4763C171.548 96.0605 172.63 93.0362 172.637 89.9139C172.629 86.2537 171.174 82.7457 168.591 80.1575C166.009 77.5693 162.508 76.1117 158.855 76.1036V76.1036ZM166.512 112.348L159.345 109.862C159.03 109.739 158.681 109.739 158.365 109.862L151.199 112.348V101.392C153.491 102.855 156.139 103.662 158.855 103.724C161.571 103.653 164.216 102.847 166.512 101.392V112.348ZM158.855 100.655C156.736 100.655 154.663 100.025 152.9 98.845C151.138 97.6648 149.764 95.9872 148.953 94.0245C148.141 92.0617 147.929 89.902 148.343 87.8184C148.756 85.7348 149.777 83.8208 151.276 82.3186C152.775 80.8164 154.685 79.7934 156.764 79.3789C158.844 78.9645 160.999 79.1772 162.957 79.9902C164.916 80.8032 166.59 82.1799 167.768 83.9463C168.946 85.7127 169.574 87.7895 169.574 89.9139C169.55 92.7553 168.413 95.4734 166.408 97.4826C164.403 99.4919 161.691 100.631 158.855 100.655V100.655Z" fill="#18B025"/>
<circle cx="129.324" cy="51.5" r="6.5" stroke="#EF6B01" stroke-width="2"/>
<circle cx="158.824" cy="90" r="7" stroke="#EF6B01" stroke-width="2"/>
</g>
<defs>
<clipPath id="clip0_38:2">
<rect width="98" height="89" fill="white" transform="translate(83.8242 27)"/>
</clipPath>
</defs>
</svg>
