<svg width="197" height="110" viewBox="0 0 197 110" fill="none" xmlns="http://www.w3.org/2000/svg">
<g clip-path="url(#clip0_37:285)">
<path d="M19.4909 99.3811H142.158L148.824 89.3584H12.8242L19.4909 99.3811Z" fill="#E9E9E9"/>
<path d="M142.069 85.5272C152.113 56.8845 139.624 25.2572 112.513 11.4036C111.758 11.0027 111.402 10.1118 111.713 9.30994L114.424 2.22721L105.091 -1.33643L102.38 5.7463C102.069 6.54812 101.224 6.99358 100.38 6.77085C70.9575 -1.0246 40.5575 14.1654 29.002 42.229L142.069 85.5272Z" fill="#E9E9E9"/>
</g>
<g clip-path="url(#clip1_37:285)">
<path d="M136.93 36.0674C127.381 36.0674 118.404 39.7522 111.654 46.4417C104.901 53.1246 101.182 62.0251 101.182 71.5044C101.182 80.9732 104.901 89.8682 111.653 96.5503C118.405 103.241 127.382 106.926 136.93 106.926C146.479 106.926 155.456 103.241 162.207 96.551C168.96 89.8677 172.678 80.9725 172.678 71.5044C172.678 62.0254 168.96 53.1246 162.207 46.4424C155.456 39.7522 146.479 36.0674 136.93 36.0674ZM160.285 94.646C154.047 100.828 145.752 104.232 136.93 104.232C128.108 104.232 119.814 100.828 113.575 94.6453C107.336 88.4712 103.9 80.2533 103.9 71.5047C103.9 62.7457 107.336 54.5218 113.576 48.3474C119.814 42.1659 128.108 38.7615 136.93 38.7615C145.753 38.7615 154.047 42.1659 160.286 48.3481C166.524 54.522 169.96 62.746 169.96 71.5047C169.96 80.2526 166.524 88.4709 160.285 94.646Z" fill="#18B025"/>
<path d="M194.55 46.7146V34.4226C194.55 33.6787 193.941 33.0757 193.191 33.0757H189.831C189.08 33.0757 188.471 33.6787 188.471 34.4226V45.5192H187.679V34.4226C187.679 33.6787 187.07 33.0757 186.32 33.0757H182.951C182.201 33.0757 181.592 33.6787 181.592 34.4226V45.5192H180.816V34.4226C180.816 33.6787 180.208 33.0757 179.457 33.0757H176.088C175.337 33.0757 174.729 33.6787 174.729 34.4226V55.5253C174.729 58.1474 175.762 60.6109 177.633 62.4567C178.474 63.2965 179.48 63.987 180.583 64.4847V105.909C180.583 108.128 182.405 109.933 184.644 109.933C186.874 109.933 188.689 108.128 188.689 105.909V64.4854C189.785 63.9913 190.792 63.3019 191.643 62.4596C193.523 60.5948 194.559 58.1321 194.559 55.5251V46.8661C194.559 46.8149 194.556 46.7642 194.55 46.7146ZM191.84 55.5251C191.84 57.4131 191.087 59.1996 189.721 60.5548C188.93 61.3376 187.951 61.9399 186.892 62.2971C186.34 62.4827 185.97 62.9955 185.97 63.5724V105.909C185.97 106.642 185.375 107.239 184.644 107.239C183.904 107.239 183.302 106.642 183.302 105.909V63.5726C183.302 62.9968 182.932 62.4845 182.382 62.2982C181.314 61.9361 180.339 61.3349 179.557 60.5535C178.197 59.2112 177.447 57.4254 177.447 55.5253V35.7696H178.098L178.098 46.8661C178.098 47.6101 178.707 48.213 179.457 48.213H182.951C183.702 48.213 184.31 47.6098 184.31 46.8661V35.7696H184.96V46.8661C184.96 47.6098 185.569 48.213 186.319 48.213H189.831C190.581 48.213 191.19 47.6098 191.19 46.8661V35.7696H191.831V46.8661C191.831 46.9175 191.834 46.968 191.84 47.0176V55.5251H191.84Z" fill="#18B025"/>
<path d="M136.929 53.9634C132.21 53.9634 127.77 55.7878 124.428 59.1004C121.079 62.4179 119.234 66.823 119.234 71.5046C119.234 76.1674 121.072 80.5656 124.414 83.8946C127.774 87.2056 132.218 89.0291 136.929 89.0291C141.649 89.0291 146.089 87.2047 149.432 83.8919C152.781 80.5735 154.625 76.1742 154.625 71.5043C154.625 66.8284 152.784 62.4237 149.439 59.099C146.087 55.7871 141.644 53.9634 136.929 53.9634ZM147.509 81.9873C144.68 84.791 140.922 86.3353 136.929 86.3353C132.942 86.3353 129.178 84.7901 126.336 81.9898C123.51 79.1742 121.953 75.4504 121.953 71.5046C121.953 67.5428 123.515 63.8142 126.35 61.0052C129.179 58.2013 132.936 56.6573 136.929 56.6573C140.919 56.6573 144.68 58.202 147.516 61.0038C150.347 63.8174 151.906 67.5466 151.906 71.5046C151.906 75.4545 150.345 79.1774 147.509 81.9873Z" fill="#EF6B01"/>
<path d="M92.9473 32.8037C91.7442 31.8996 90.2666 31.8507 88.8263 32.715C88.2298 33.08 87.6317 33.615 87.1008 34.257C85.2133 36.5167 83.3027 40.756 83.3027 44.4861V78.9413C83.3027 79.685 83.9115 80.2882 84.6621 80.2882H84.8203V106.867C84.8203 109.086 86.642 110.892 88.8814 110.892C91.1205 110.892 92.9423 109.086 92.9423 106.867V80.2882H93.1013C93.8519 80.2882 94.4607 79.685 94.4607 78.9413V36.191C94.4607 34.3066 93.6301 33.3034 92.9473 32.8037ZM91.742 77.5943H91.5829C90.8323 77.5943 90.2235 78.1975 90.2235 78.9413V106.867C90.2235 107.601 89.6216 108.198 88.8814 108.198C88.1412 108.198 87.539 107.601 87.539 106.867V78.9413C87.539 78.1975 86.9302 77.5943 86.1796 77.5943H86.0215V44.4861C86.0215 41.4256 87.6568 37.8165 89.1995 35.9694C89.5411 35.5561 89.9161 35.2145 90.2446 35.0133C90.4902 34.8661 90.7125 34.7882 90.8874 34.7882C90.9809 34.7882 91.113 34.8066 91.3181 34.9606C91.6683 35.2169 91.742 35.7714 91.742 36.1912V77.5943Z" fill="#18B025"/>
</g>
<defs>
<clipPath id="clip0_37:285">
<rect width="160" height="98" fill="white" transform="translate(0.824219)"/>
</clipPath>
<clipPath id="clip1_37:285">
<rect width="116" height="84" fill="white" transform="translate(80.8242 26)"/>
</clipPath>
</defs>
</svg>
