<svg width="143" height="115" viewBox="0 0 143 115" fill="none" xmlns="http://www.w3.org/2000/svg">
<g clip-path="url(#clip0_37:265)">
<path d="M98.2691 53.1935L75.8172 1.52315C75.1473 0.0381514 73.0418 7.45654e-05 72.3145 1.46604L49.9773 47.501C49.5945 48.2435 49.7477 49.1383 50.341 49.7285L77.6164 76.3824C78.382 77.1439 78.382 78.3624 77.6164 79.1239L72.3527 84.3595C71.5871 85.121 70.3238 85.121 69.5773 84.3405L31.966 44.493C31.143 43.6362 29.7266 43.7314 29.0184 44.6833L1.58984 82.0749C1.34102 82.4176 1.20703 82.8174 1.20703 83.2362V95.1733C1.20703 96.2395 2.06836 97.1153 3.15937 97.1153H96.4891C97.5609 97.1153 98.4414 96.2395 98.4414 95.1733V53.9932C98.4414 53.7266 98.384 53.441 98.2691 53.1935Z" fill="#E9E9E9"/>
<path d="M13.3613 24.5597C20.074 24.5597 25.5156 19.1471 25.5156 12.4703C25.5156 5.79348 20.074 0.380859 13.3613 0.380859C6.6487 0.380859 1.20703 5.79348 1.20703 12.4703C1.20703 19.1471 6.6487 24.5597 13.3613 24.5597Z" fill="#E9E9E9"/>
</g>
<g clip-path="url(#clip1_37:265)">
<path d="M91.1957 115H137.689C140.476 115 142.822 112.44 142.822 109.4C142.822 109.08 142.822 51.96 142.822 51.64C142.822 51.16 142.529 50.68 142.236 50.36L128.449 35.32C128.302 35.16 127.862 35 127.422 35H91.1957C88.409 35 86.209 37.56 86.209 40.6V109.56C86.209 112.44 88.409 115 91.1957 115ZM137.836 50.2H131.089C129.916 50.2 128.889 49.08 128.889 47.8V40.44L137.836 50.2ZM89.1423 40.6C89.1423 39.32 90.0223 38.2 91.1957 38.2H125.956V47.8C125.956 50.84 128.302 53.4 131.089 53.4H139.889V109.56C139.889 110.84 138.862 111.96 137.689 111.96H91.1957C90.0223 111.96 88.9957 110.84 88.9957 109.56V40.6H89.1423Z" fill="#18B025"/>
<path d="M93.6885 103.16H135.195C136.368 103.16 137.395 102.36 137.982 101.24C138.422 100.12 138.275 98.68 137.542 97.72L122.288 77.56C121.115 76.12 118.768 76.12 117.595 77.56L107.328 91L104.248 86.84C103.075 85.4 100.728 85.4 99.5551 86.84L91.3418 97.72C90.6085 98.68 90.4618 100.12 90.9018 101.24C91.4885 102.52 92.5151 103.16 93.6885 103.16ZM102.048 88.92L105.128 93.08C106.302 94.52 108.648 94.52 109.822 93.08L120.088 79.64L135.342 99.96C135.342 99.96 135.342 99.96 135.195 99.96H93.6885L93.5418 99.8L102.048 88.92Z" fill="#EF6B01"/>
<path d="M104.836 63.1601C107.476 63.1601 109.676 60.7601 109.676 57.8801C109.676 55.0001 107.476 52.6001 104.836 52.6001C102.196 52.6001 99.9961 55.0001 99.9961 57.8801C99.9961 60.7601 102.196 63.1601 104.836 63.1601ZM104.836 55.1601C106.303 55.1601 107.476 56.4401 107.476 58.0401C107.476 59.6401 106.303 60.9201 104.836 60.9201C103.369 60.9201 102.196 59.6401 102.196 58.0401C102.196 56.4401 103.369 55.1601 104.836 55.1601Z" fill="#EF6B01"/>
<path d="M103.809 65.8801V69.8801C103.809 70.5201 104.249 71.1601 104.982 71.1601C105.715 71.1601 106.155 70.6801 106.155 69.8801V65.8801C106.155 65.2401 105.715 64.6001 104.982 64.6001C104.249 64.6001 103.809 65.2401 103.809 65.8801Z" fill="#18B025"/>
<path d="M104.835 51.1601C105.422 51.1601 106.009 50.6801 106.009 49.8801V45.8801C106.009 45.2401 105.569 44.6001 104.835 44.6001C104.102 44.6001 103.662 45.0801 103.662 45.8801V49.8801C103.809 50.6801 104.249 51.1601 104.835 51.1601Z" fill="#18B025"/>
<path d="M98.8216 62.6798L96.1816 65.5598C95.7416 66.0398 95.7416 66.8398 96.1816 67.3198C96.3282 67.4798 96.6216 67.6398 96.9149 67.6398C97.2082 67.6398 97.5016 67.4798 97.6482 67.3198L100.288 64.4398C100.728 63.9598 100.728 63.1598 100.288 62.6798C99.8482 62.1998 99.2616 62.1998 98.8216 62.6798Z" fill="#18B025"/>
<path d="M109.97 53.5597C110.263 53.5597 110.556 53.3997 110.703 53.2397L113.343 50.3597C113.783 49.8797 113.783 49.0797 113.343 48.5997C112.903 48.1197 112.17 48.1197 111.73 48.5997L109.09 51.4797C108.65 51.9597 108.65 52.7597 109.09 53.2397C109.53 53.3997 109.676 53.5597 109.97 53.5597Z" fill="#18B025"/>
<path d="M93.8354 59.1601H97.5021C98.0888 59.1601 98.6754 58.6801 98.6754 57.8801C98.6754 57.0801 98.2354 56.6001 97.5021 56.6001H93.8354C93.2488 56.6001 92.6621 57.0801 92.6621 57.8801C92.6621 58.6801 93.2488 59.1601 93.8354 59.1601Z" fill="#18B025"/>
<path d="M110.996 57.8801C110.996 58.5201 111.436 59.1601 112.169 59.1601H115.836C116.423 59.1601 117.009 58.6801 117.009 57.8801C117.009 57.0801 116.569 56.6001 115.836 56.6001H112.169C111.583 56.7601 110.996 57.2401 110.996 57.8801Z" fill="#18B025"/>
<path d="M98.8217 53.0801C98.9684 53.2401 99.2617 53.4001 99.5551 53.4001C99.8484 53.4001 100.142 53.2401 100.288 53.0801C100.728 52.6001 100.728 51.8001 100.288 51.3201L97.6484 48.4401C97.2084 47.9601 96.4751 47.9601 96.0351 48.4401C95.5951 48.9201 95.5951 49.7201 96.0351 50.2001L98.8217 53.0801Z" fill="#18B025"/>
<path d="M109.236 62.6798C108.796 63.1598 108.796 63.9598 109.236 64.4398L111.876 67.3198C112.023 67.4798 112.316 67.6398 112.61 67.6398C112.903 67.6398 113.196 67.4798 113.343 67.3198C113.783 66.8398 113.783 66.0398 113.343 65.5598L110.703 62.6798C110.41 62.1998 109.676 62.1998 109.236 62.6798Z" fill="#18B025"/>
</g>
<defs>
<clipPath id="clip0_37:265">
<rect width="98" height="99" fill="white" transform="translate(0.824219)"/>
</clipPath>
<clipPath id="clip1_37:265">
<rect width="57" height="79" fill="white" transform="translate(85.8242 36)"/>
</clipPath>
</defs>
</svg>
