<svg width="177" height="115" viewBox="0 0 177 115" fill="none" xmlns="http://www.w3.org/2000/svg">
<g clip-path="url(#clip0_37:330)">
<path fill-rule="evenodd" clip-rule="evenodd" d="M113.027 96.2207L113.204 95.511V89.9999H103.958V84.3381L91.8495 84.3774L91.8479 89.9999H72.5058V84.4355L1.71447 84.6616V89.2871C27.3386 89.6121 45.4042 91.6784 52.7492 96.2207H113.027ZM2.95642 82.71L107.668 82.1761C113.536 82.1761 116.56 76.8393 116.737 71.6847L115.938 41.8244C115.746 39.901 115.258 38.2713 114.019 37.392L111.537 35.9742L103.779 11.4021C103.278 10.336 102.446 9.92459 101.47 9.80369L79.7455 9.70478V9.45828L78.6653 8.56646L79.3907 7.96824H87.8897V4.93637H83.0616L85.6319 2.81202H93.6802V-0.219848H61.614V2.81202H68.0247L70.5981 4.93637H55.8234V7.96824H74.269L74.9928 8.56646L73.911 9.45828V9.67653L63.7744 9.62941C60.573 9.62941 58.5554 11.7616 57.1941 14.0712C47.8803 33.9394 38.5209 53.7902 2.4273 63.6834C1.67836 63.8184 1.10841 64.1387 0.824219 64.7495L1.36119 80.5746C1.32822 82.1337 2.03006 82.5953 2.95642 82.71ZM3.31598 73.8169V64.9269C4.53438 64.7511 5.72609 64.5423 6.89267 64.3146L6.89581 73.5531C5.70724 73.6583 4.51554 73.7509 3.31598 73.8169ZM9.54458 73.2689V63.7352C10.887 63.4181 12.1949 63.0648 13.473 62.6785V72.7178C12.1729 72.9266 10.8619 73.1103 9.54458 73.2689ZM16.3007 72.2216V61.7538C17.9541 61.1728 19.5603 60.5354 21.1178 59.8477V71.1728C19.5242 71.5591 17.9148 71.9108 16.3007 72.2216ZM24.4778 70.2826V58.2461C26.4515 57.2444 28.3497 56.1626 30.1868 55.007V68.4707C28.3058 69.1332 26.4012 69.7362 24.4778 70.2826ZM34.258 66.9398V52.2703C36.4075 50.7348 38.4785 49.1066 40.5023 47.4109V64.1733C38.4455 65.1687 36.3635 66.0872 34.258 66.9398ZM44.5721 62.0882V43.8342C46.9225 41.691 49.2227 39.4614 51.5025 37.1879V57.9934C49.2227 59.4551 46.9146 60.8211 44.5721 62.0882ZM101.204 52.4792V46.5206C101.204 45.5236 102.014 44.7134 103.011 44.7134H108.279C109.276 44.7134 110.086 45.5236 110.086 46.5206V52.4792C110.086 53.4762 109.276 54.2863 108.279 54.2863H103.011C102.014 54.2863 101.204 53.4762 101.204 52.4792ZM69.4095 52.4792V46.5206C69.4095 45.5236 70.2197 44.7134 71.2167 44.7134H76.4844C77.4815 44.7134 78.2916 45.5236 78.2916 46.5206V52.4792C78.2916 53.4762 77.4815 54.2863 76.4844 54.2863H71.2167C70.2197 54.2863 69.4095 53.4762 69.4095 52.4792ZM86.8503 31.9123L85.3618 13.4432C90.1051 13.5437 94.7887 14.1937 99.3954 15.4969C100.573 15.4577 101.08 15.6084 101.649 16.2034L107.693 31.3204C107.869 32.9204 106.789 33.9864 105.737 33.9896C99.342 32.7916 93.0475 32.107 86.8503 31.9123ZM59.5037 30.0753L64.4841 16.384C64.8515 15.9224 65.4278 15.6665 66.263 15.6743C71.7694 14.357 77.2365 13.5625 82.6345 13.4432L84.1199 31.859C76.2929 31.7962 68.6245 32.5215 61.1053 33.9896C59.1254 33.6504 58.6747 32.286 59.5037 30.0753ZM74.2706 4.93637L71.6972 2.81202H81.961L79.3891 4.93637H74.2706Z" fill="#18B025"/>
</g>
<g clip-path="url(#clip1_37:330)">
<path d="M121.961 79.6794C122.256 80.2754 122.863 80.6524 123.529 80.6524H130.609V95.4604C130.609 96.2124 131.089 96.8804 131.802 97.1204C131.986 97.1814 132.173 97.2104 132.359 97.2104C132.898 97.2104 133.418 96.9624 133.755 96.5174L150.866 73.8864C151.266 73.3574 151.333 72.6464 151.036 72.0524C150.741 71.4564 150.134 71.0814 149.47 71.0814H141.464L142.933 55.8824C143.007 55.1054 142.558 54.3704 141.829 54.0854C141.099 53.7984 140.27 54.0324 139.798 54.6534L122.136 77.8414C121.734 78.3704 121.666 79.0834 121.961 79.6794ZM138.857 61.6654L137.794 72.6634C137.747 73.1534 137.909 73.6424 138.239 74.0074C138.571 74.3724 139.042 74.5814 139.536 74.5814H145.952L134.109 90.2454V78.9014C134.109 77.9344 133.326 77.1514 132.359 77.1514H127.062L138.857 61.6654Z" fill="#E9E9E9"/>
<path d="M96.6445 75.6401C96.6445 76.6071 97.4275 77.3901 98.3945 77.3901H109.432C110.399 77.3901 111.182 76.6071 111.182 75.6401C111.182 74.6731 110.399 73.8901 109.432 73.8901H98.3945C97.4275 73.8901 96.6445 74.6731 96.6445 75.6401Z" fill="#EF6B01"/>
<path d="M174.607 73.8901H163.568C162.601 73.8901 161.818 74.6731 161.818 75.6401C161.818 76.6071 162.601 77.3901 163.568 77.3901H174.607C175.574 77.3901 176.357 76.6071 176.357 75.6401C176.357 74.6731 175.574 73.8901 174.607 73.8901Z" fill="#EF6B01"/>
<path d="M134.75 102.712V113.745C134.75 114.712 135.533 115.495 136.5 115.495C137.467 115.495 138.25 114.712 138.25 113.745V102.712C138.25 101.745 137.467 100.962 136.5 100.962C135.533 100.962 134.75 101.745 134.75 102.712Z" fill="#EF6B01"/>
<path d="M138.25 48.5692V37.5322C138.25 36.5652 137.467 35.7822 136.5 35.7822C135.533 35.7822 134.75 36.5652 134.75 37.5322V48.5692C134.75 49.5362 135.533 50.3192 136.5 50.3192C137.467 50.3192 138.25 49.5362 138.25 48.5692Z" fill="#EF6B01"/>
<path d="M117.886 91.7743L108.316 101.348C107.632 102.032 107.632 103.139 108.316 103.823C108.658 104.165 109.105 104.335 109.554 104.335C110.001 104.335 110.449 104.165 110.79 103.823L120.36 94.2493C121.044 93.5653 121.044 92.4583 120.36 91.7743C119.676 91.0903 118.57 91.0913 117.886 91.7743Z" fill="#EF6B01"/>
<path d="M164.679 47.4583C163.995 46.7743 162.888 46.7743 162.204 47.4583L152.634 57.0323C151.95 57.7163 151.95 58.8233 152.634 59.5073C152.976 59.8493 153.425 60.0193 153.872 60.0193C154.319 60.0193 154.767 59.8493 155.108 59.5073L164.678 49.9333C165.363 49.2493 165.363 48.1423 164.679 47.4583Z" fill="#EF6B01"/>
<path d="M163.441 104.335C163.888 104.335 164.337 104.165 164.679 103.823C165.363 103.139 165.363 102.032 164.679 101.348L155.109 91.7742C154.425 91.0902 153.318 91.0902 152.634 91.7742C151.95 92.4582 151.95 93.5652 152.634 94.2492L162.204 103.823C162.547 104.165 162.994 104.335 163.441 104.335Z" fill="#EF6B01"/>
<path d="M120.361 57.0323L110.789 47.4583C110.105 46.7743 108.998 46.7743 108.314 47.4583C107.63 48.1423 107.63 49.2493 108.314 49.9333L117.886 59.5073C118.228 59.8493 118.675 60.0193 119.124 60.0193C119.571 60.0193 120.019 59.8493 120.36 59.5073C121.045 58.8233 121.045 57.7163 120.361 57.0323Z" fill="#EF6B01"/>
</g>
<defs>
<clipPath id="clip0_37:330">
<rect width="116" height="96" fill="white" transform="translate(0.824219)"/>
</clipPath>
<clipPath id="clip1_37:330">
<rect width="82" height="79" fill="white" transform="translate(94.8242 36)"/>
</clipPath>
</defs>
</svg>
