<svg width="175" height="116" viewBox="0 0 175 116" fill="none" xmlns="http://www.w3.org/2000/svg">
<path d="M167.498 40.0601C167.048 36.1617 162.551 36.0591 161.877 33.4943C161.203 30.9296 165.587 26.0052 164.688 23.7482C163.788 21.4912 161.09 21.0808 152.322 21.29C143.553 21.4992 141.08 16.5669 137.37 16.7721C133.66 16.9773 126.466 21.0809 122.756 21.2861C119.046 21.4912 117.922 13.6943 114.887 12.4632C111.851 11.2322 109.94 13.3865 106.68 12.0528C103.42 10.7192 105.781 1.28084 98.0241 0.56273C90.2673 -0.155381 87.6816 4.97412 86.2203 6.20524C84.759 7.43636 77.4517 6.3078 74.4164 8.56483C71.3812 10.8218 74.0793 16.2591 71.9433 16.4643C69.8072 16.6695 68.9081 14.5151 66.8846 14.5121C64.8611 14.5091 64.7485 15.7462 59.6897 15.796C54.6309 15.8458 48.7854 17.1825 46.4245 17.0799C44.0637 16.9773 35.047 15.0343 28.4378 14.515C23.8494 14.2757 19.3258 15.5909 15.7347 18.2082C14.1609 19.2341 11.3504 16.9771 11.3504 19.9523C11.3504 22.9274 15.8472 25.7999 16.2968 29.9036C16.7463 34.0072 10.6759 38.2135 8.31498 40.5731C5.95412 42.9327 4.15572 44.4715 5.7295 48.4726C7.30329 52.4736 4.26805 51.9607 1.4576 56.1669C-1.35286 60.3731 2.35698 61.5016 5.84201 63.5534C9.32703 65.6053 12.6994 65.5027 17.5333 65.7078C22.3671 65.913 23.8287 67.9648 27.0887 68.683C30.3487 69.4011 38.3304 63.0405 40.8037 62.1171C43.2767 61.1938 47.2113 58.7317 50.0218 57.6032C52.8322 56.4747 62.5001 59.2446 66.8845 62.1171C71.2689 64.9896 75.5405 76.1721 77.3392 78.5317C77.7045 79.0522 78.1864 79.4963 78.7533 79.8347C79.3201 80.1731 79.959 80.3982 80.628 80.4951C81.297 80.592 81.9809 80.5586 82.6347 80.397C83.2885 80.2354 83.8974 79.9493 84.4214 79.5576C86.6697 78.0187 91.6161 73.4021 94.0892 73.2996C96.5624 73.197 96.7874 77.3006 98.586 79.7628C100.385 82.225 104.769 80.7887 107.13 79.1472C109.49 77.5058 113.425 79.7628 113.762 82.1224C114.099 84.4819 102.858 88.0727 103.532 90.6374C104.207 93.2021 110.84 90.74 113.538 91.253C116.236 91.7659 116.236 94.1255 116.011 96.998C115.893 97.6149 115.933 98.2484 116.129 98.8486C116.325 99.4488 116.671 99.9993 117.139 100.457C117.608 100.914 118.187 101.266 118.83 101.485C119.472 101.704 120.162 101.783 120.845 101.717C124.217 101.82 132.424 90.74 133.436 88.6882C134.447 86.6364 138.382 89.0985 141.192 88.6882C141.887 88.5066 142.491 88.1092 142.899 87.5647C143.307 87.0201 143.494 86.3626 143.427 85.7056C143.361 85.0487 143.045 84.4336 142.534 83.9667C142.023 83.4998 141.35 83.2103 140.63 83.1483C136.696 82.6353 131.974 86.226 128.939 84.0716C125.904 81.9172 124.105 79.4549 119.833 79.1472C115.561 78.8394 113.65 76.8902 113.65 75.6591C113.65 74.428 120.283 75.1462 123.768 75.1462C127.252 75.1462 132.311 69.8114 137.37 68.3752C142.429 66.9389 153.446 59.5523 155.244 57.1928C157.043 54.8332 153.895 50.5244 159.067 47.6518C164.238 44.7792 167.948 43.9586 167.498 40.0601Z" fill="#E9E9E9"/>
<path d="M79.8122 82.429C77.339 80.5825 74.641 81.3006 72.1677 81.711C69.6943 82.1213 69.1967 80.4403 68.1208 81.711C66.2097 83.9679 67.1089 87.2508 64.7482 90.226C62.3875 93.2011 62.275 94.5348 63.624 96.5867C64.973 98.6386 67.1088 96.0738 68.6828 94.3473C70.2568 92.6209 74.641 94.022 76.4396 94.3297C78.2382 94.6374 77.6761 90.8416 79.8121 88.995C80.3515 88.601 80.7869 88.1014 81.0861 87.5332C81.3852 86.9649 81.5406 86.3425 81.5406 85.712C81.5406 85.0816 81.3853 84.4592 81.0861 83.8909C80.7869 83.3226 80.3515 82.823 79.8122 82.429Z" fill="#E9E9E9"/>
<g clip-path="url(#clip0_37:253)">
<path d="M168.95 54.2705C168.252 54.2704 167.57 54.4788 166.989 54.8694C166.409 55.2601 165.956 55.8153 165.689 56.465C165.422 57.1147 165.352 57.8297 165.488 58.5194C165.624 59.2092 165.96 59.8428 166.454 60.3401C166.947 60.8375 167.576 61.1762 168.261 61.3134C168.946 61.4507 169.655 61.3803 170.301 61.1112C170.946 60.8421 171.497 60.3864 171.885 59.8016C172.273 59.2169 172.48 58.5294 172.48 57.8261C172.479 56.8835 172.107 55.9798 171.445 55.3132C170.783 54.6467 169.886 54.2717 168.95 54.2705ZM168.95 59.4532C168.631 59.4533 168.319 59.358 168.053 59.1793C167.787 59.0006 167.58 58.7465 167.458 58.4492C167.335 58.152 167.303 57.8248 167.365 57.5091C167.428 57.1935 167.582 56.9035 167.807 56.6759C168.033 56.4483 168.321 56.2932 168.634 56.2304C168.948 56.1676 169.273 56.1997 169.568 56.3229C169.863 56.446 170.115 56.6545 170.293 56.9221C170.47 57.1897 170.565 57.5043 170.565 57.8261C170.565 58.2575 170.395 58.671 170.092 58.9761C169.789 59.2812 169.379 59.4528 168.95 59.4534V59.4532Z" fill="#EF6B01"/>
<path d="M127.93 45.5616C128.752 45.562 129.557 45.3166 130.241 44.8566C130.925 44.3966 131.458 43.7425 131.773 42.9772C132.088 42.2119 132.17 41.3697 132.01 40.557C131.85 39.7444 131.454 38.9979 130.873 38.412C130.291 37.826 129.55 37.4269 128.744 37.2652C127.937 37.1034 127.101 37.1863 126.341 37.5032C125.581 37.8202 124.931 38.3571 124.474 39.0459C124.017 39.7347 123.773 40.5446 123.773 41.3731C123.774 42.4834 124.213 43.5479 124.992 44.3331C125.771 45.1184 126.828 45.5602 127.93 45.5616ZM127.93 39.1131C128.374 39.1128 128.808 39.245 129.177 39.4932C129.546 39.7413 129.834 40.0941 130.004 40.507C130.174 40.92 130.219 41.3744 130.132 41.8129C130.046 42.2514 129.832 42.6543 129.519 42.9705C129.205 43.2868 128.805 43.5022 128.37 43.5895C127.935 43.6769 127.484 43.6322 127.073 43.4612C126.663 43.2902 126.313 43.0005 126.066 42.6289C125.82 42.2572 125.688 41.8202 125.688 41.3731C125.688 40.7742 125.925 40.1998 126.345 39.7762C126.765 39.3525 127.335 39.114 127.93 39.1131Z" fill="#EF6B01"/>
<path d="M143.998 69.9018C143.998 69.0738 143.754 68.2645 143.297 67.5762C142.84 66.888 142.191 66.3516 141.431 66.035C140.672 65.7184 139.836 65.6357 139.03 65.7975C138.224 65.9592 137.483 66.3581 136.902 66.9437C136.321 67.5293 135.926 68.2753 135.765 69.0874C135.605 69.8995 135.687 70.7413 136.002 71.5062C136.317 72.2711 136.849 72.9249 137.533 73.3849C138.216 73.8448 139.02 74.0903 139.842 74.0903C140.944 74.0889 142.001 73.647 142.78 72.8618C143.559 72.0766 143.997 71.0121 143.998 69.9018ZM139.842 72.1618C139.398 72.1621 138.964 72.0299 138.595 71.7818C138.226 71.5336 137.938 71.1808 137.768 70.7679C137.598 70.355 137.553 69.9005 137.64 69.462C137.726 69.0235 137.939 68.6206 138.253 68.3044C138.567 67.9882 138.967 67.7727 139.402 67.6854C139.837 67.598 140.288 67.6427 140.698 67.8137C141.109 67.9847 141.459 68.2744 141.706 68.646C141.952 69.0177 142.084 69.4547 142.084 69.9018C142.083 70.5008 141.847 71.0752 141.427 71.4989C141.006 71.9226 140.436 72.161 139.842 72.1618H139.842Z" fill="#EF6B01"/>
<path d="M112.399 58.6461C113.221 58.6465 114.025 58.4011 114.709 57.9411C115.393 57.4811 115.927 56.827 116.242 56.0617C116.557 55.2964 116.639 54.4541 116.479 53.6415C116.319 52.8289 115.923 52.0824 115.341 51.4965C114.76 50.9105 114.019 50.5114 113.212 50.3497C112.406 50.1879 111.569 50.2707 110.81 50.5877C110.05 50.9047 109.4 51.4415 108.943 52.1304C108.486 52.8192 108.242 53.6291 108.242 54.4576C108.243 55.5678 108.681 56.6323 109.461 57.4176C110.24 58.2028 111.296 58.6446 112.399 58.6461ZM112.399 52.1976C112.842 52.1973 113.276 52.3295 113.646 52.5776C114.015 52.8257 114.303 53.1786 114.473 53.5915C114.643 54.0044 114.687 54.4589 114.601 54.8974C114.515 55.3359 114.301 55.7388 113.987 56.055C113.674 56.3712 113.274 56.5866 112.839 56.674C112.403 56.7613 111.952 56.7167 111.542 56.5457C111.132 56.3747 110.782 56.085 110.535 55.7133C110.288 55.3416 110.157 54.9046 110.157 54.4576C110.157 53.8586 110.393 53.2843 110.814 52.8606C111.234 52.437 111.804 52.1985 112.399 52.1976Z" fill="#EF6B01"/>
<path d="M174.987 57.5891C174.781 54.407 172.2 51.9148 169.111 51.9148C167.683 51.9178 166.307 52.4523 165.246 53.4155C162.109 50.3287 158.193 47.6698 153.857 45.6934C148.941 43.4522 143.83 42.2676 139.077 42.2676C137.766 42.2796 136.456 42.3615 135.154 42.5128C135.219 42.0427 135.236 41.5671 135.205 41.0934C134.958 37.2578 131.85 34.2534 128.13 34.2534C124.41 34.2534 121.301 37.2578 121.054 41.0918C120.965 42.8466 121.49 44.5772 122.538 45.9822L122.735 46.2485C120.984 47.2468 119.296 48.3549 117.683 49.5663C117.031 48.8656 116.244 48.3065 115.369 47.9233C114.495 47.5402 113.553 47.341 112.599 47.3381C108.879 47.3381 105.77 50.3435 105.524 54.1765C105.435 55.9314 105.96 57.6619 107.007 59.0671L108.149 60.6045C105.444 65.8434 103.84 72.2228 103.84 77.7962C103.83 82.4638 104.734 87.0874 106.501 91.4025C108.267 95.7176 110.861 99.6394 114.134 102.943C117.407 106.247 121.295 108.869 125.575 110.657C129.855 112.446 134.443 113.366 139.077 113.366C143.711 113.366 148.299 112.446 152.579 110.657C156.859 108.869 160.747 106.247 164.02 102.943C167.293 99.6394 169.887 95.7176 171.654 91.4025C173.42 87.0874 174.324 82.4638 174.315 77.7962C174.315 73.8404 173.314 67.908 172.008 63.9995L173.756 61.6451C174.635 60.4849 175.071 59.0459 174.987 57.5891ZM122.964 41.2185C123.124 38.7435 125.1 36.182 128.13 36.182C131.159 36.182 133.135 38.7428 133.295 41.221C133.366 42.5178 132.973 43.7973 132.188 44.8275L128.13 50.2958L124.078 44.8369C123.299 43.7988 122.905 42.5186 122.964 41.2185ZM107.435 54.3032C107.594 51.8282 109.57 49.2667 112.6 49.2667C115.629 49.2667 117.605 51.8275 117.765 54.3059C117.836 55.6027 117.444 56.8822 116.658 57.9122L112.599 63.3805L108.548 57.9217C107.769 56.8835 107.375 55.6033 107.435 54.3032ZM109.432 62.3341L111.833 65.5683C111.923 65.6884 112.038 65.7859 112.171 65.853C112.304 65.9202 112.451 65.9552 112.6 65.9552C112.749 65.9552 112.896 65.9202 113.029 65.853C113.162 65.7859 113.278 65.6884 113.367 65.5683L118.191 59.0677C119.045 57.9463 119.558 56.5992 119.667 55.1899C119.776 53.7806 119.477 52.3697 118.806 51.1284C120.427 49.9101 122.127 48.8009 123.894 47.8081L127.363 52.4829C127.452 52.603 127.568 52.7005 127.701 52.7677C127.834 52.8348 127.981 52.8698 128.13 52.8698C128.279 52.8698 128.426 52.8348 128.559 52.7677C128.692 52.7005 128.808 52.603 128.897 52.4829L133.721 45.9825C134.058 45.5299 134.345 45.0413 134.576 44.5256C134.974 44.4744 135.371 44.4265 135.763 44.3865L139.784 50.2294C140.25 50.9033 140.49 51.7095 140.469 52.5304C140.449 53.3513 140.169 54.1442 139.67 54.7937L138.534 56.2792C138.257 56.6402 137.891 56.9223 137.473 57.0975C137.055 57.2726 136.598 57.3349 136.149 57.2782L134.86 57.1123C133.953 56.995 133.031 57.149 132.209 57.5553C131.388 57.9616 130.703 58.6021 130.24 59.3973C129.979 59.8452 129.594 60.2061 129.131 60.4352C128.668 60.6643 128.149 60.7514 127.638 60.6858L124.663 60.3049C123.774 60.1883 122.869 60.3239 122.052 60.6964C121.235 61.0689 120.537 61.6636 120.036 62.4136C119.568 63.1104 119.312 63.9296 119.299 64.7709C119.286 65.6121 119.517 66.4389 119.964 67.1499L121.929 70.2782C122.291 70.8513 122.791 71.323 123.382 71.6493C123.974 71.9757 124.638 72.1462 125.312 72.145C125.966 72.1456 126.609 71.9829 127.185 71.6717L129.208 70.5789C130.199 70.0435 131.809 70.0382 132.969 70.5197C133.079 71.964 133.593 73.3473 134.451 74.5101L139.276 81.0126C139.365 81.1327 139.481 81.2302 139.614 81.2974C139.747 81.3645 139.894 81.3995 140.043 81.3995C140.192 81.3995 140.339 81.3645 140.472 81.2974C140.605 81.2302 140.72 81.1327 140.81 81.0126L143.257 77.7151L143.568 78.1445C143.7 78.3296 143.841 78.5119 143.988 78.6861L146.445 81.6011C146.555 81.7311 146.637 81.882 146.687 82.0449C146.736 82.2077 146.753 82.3791 146.735 82.5485C146.717 82.718 146.665 82.8821 146.583 83.0308C146.5 83.1795 146.388 83.3098 146.254 83.4137L142.531 86.2977C141.54 87.0622 140.811 88.1195 140.446 89.3219L139.205 93.3802C139.107 93.7003 138.947 93.9977 138.735 94.2551L137.527 95.7196C136.628 96.8083 136.071 98.1425 135.928 99.5516C135.893 99.8943 135.767 100.221 135.563 100.498C135.36 100.775 135.086 100.991 134.77 101.125C134.638 101.18 134.495 101.205 134.352 101.197C134.209 101.189 134.07 101.149 133.944 101.079C133.819 101.009 133.711 100.912 133.628 100.794C133.546 100.676 133.491 100.541 133.467 100.398L132.33 93.5168C132.188 92.6616 131.841 91.8541 131.32 91.164L127.152 85.6545C126.778 85.1603 126.501 84.5984 126.337 83.9992L124.961 78.9963C124.718 78.1197 124.254 77.3214 123.614 76.6789C122.974 76.0364 122.18 75.5716 121.309 75.3296L121.01 75.2475C120.405 75.0805 119.85 74.7668 119.393 74.3338L116.827 71.8983C116.419 71.5107 116.068 71.0653 115.787 70.5761C115.19 69.5393 114.286 68.7162 113.202 68.2217C112.118 67.7272 110.908 67.5861 109.741 67.818C109.703 67.8253 109.666 67.835 109.63 67.8469L107.059 68.6892C107.659 66.5033 108.453 64.3763 109.432 62.3341ZM134.878 69.7475C135.037 67.2725 137.013 64.711 140.043 64.711C143.073 64.711 145.048 67.2719 145.208 69.7502C145.28 71.047 144.887 72.3265 144.102 73.3565L140.043 78.8248L135.991 73.366C135.212 72.3278 134.818 71.0476 134.878 69.7475ZM172.4 77.7962C172.4 96.3234 157.451 111.396 139.077 111.396C120.703 111.396 105.755 96.3234 105.755 77.7962C105.77 75.4746 106.027 73.161 106.522 70.8934L110.165 69.6998C110.934 69.5585 111.728 69.6598 112.437 69.9898C113.147 70.3199 113.739 70.8627 114.131 71.544C114.505 72.1944 114.972 72.7866 115.515 73.3022L118.08 75.7368C118.766 76.3862 119.599 76.8567 120.507 77.1072L120.806 77.1892C121.357 77.3426 121.859 77.637 122.264 78.0437C122.669 78.4505 122.962 78.9558 123.116 79.5106L124.492 84.5142C124.721 85.3505 125.107 86.1346 125.629 86.8242L129.797 92.3338C130.129 92.774 130.35 93.2891 130.441 93.8345L131.579 100.716C131.649 101.146 131.815 101.554 132.064 101.91C132.313 102.266 132.639 102.56 133.018 102.771C133.396 102.981 133.817 103.102 134.249 103.125C134.681 103.148 135.112 103.072 135.511 102.903C136.143 102.636 136.692 102.202 137.1 101.647C137.509 101.093 137.761 100.437 137.831 99.7503C137.936 98.7212 138.343 97.7469 138.999 96.9518L140.207 95.4873C140.581 95.0344 140.862 94.511 141.034 93.9477L142.275 89.8893C142.524 89.0694 143.021 88.3483 143.696 87.8269L147.421 84.9427C147.761 84.6796 148.044 84.3498 148.254 83.9732C148.463 83.5967 148.594 83.1812 148.639 82.752C148.685 82.3228 148.643 81.8888 148.516 81.4764C148.39 81.064 148.182 80.6817 147.905 80.3527L145.448 77.4377C145.335 77.3036 145.226 77.1635 145.12 77.0148L144.457 76.0988L145.635 74.5122C146.694 73.1135 147.22 71.3787 147.118 69.6225C146.871 65.7868 143.763 62.7825 140.043 62.7825C136.681 62.7825 133.82 65.2361 133.117 68.5378C131.527 68.0656 129.623 68.1682 128.303 68.8804L126.28 69.9733C125.817 70.2209 125.279 70.2838 124.773 70.1494C124.266 70.015 123.828 69.6932 123.547 69.2482L121.582 66.1197C121.334 65.7258 121.206 65.2677 121.213 64.8015C121.221 64.3354 121.363 63.8815 121.622 63.4954C121.925 63.0415 122.347 62.6816 122.842 62.4562C123.336 62.2307 123.884 62.1486 124.422 62.2192L127.396 62.5999C128.279 62.7136 129.176 62.5634 129.975 62.1679C130.774 61.7724 131.44 61.1491 131.891 60.3754C132.164 59.9057 132.568 59.5273 133.053 59.2873C133.538 59.0472 134.082 58.9562 134.618 59.0254L135.906 59.1913C136.687 59.29 137.48 59.1818 138.207 58.8774C138.934 58.573 139.57 58.083 140.051 57.4556L141.187 55.9701C141.934 54.9969 142.354 53.8087 142.385 52.5785C142.416 51.3482 142.056 50.1403 141.358 49.1304L137.979 44.2219C138.366 44.2058 138.735 44.1962 139.077 44.1962C143.561 44.1962 148.398 45.3212 153.068 47.4505C154.531 48.1192 155.953 48.876 157.326 49.7165L154.754 54.1566C154.386 54.8082 154.228 55.5592 154.302 56.3054C154.376 57.0516 154.679 57.756 155.169 58.3209C155.908 59.1735 156.933 59.7213 158.049 59.8592L158.515 59.9171C158.966 59.9734 159.392 60.1606 159.74 60.4558C160.088 60.7509 160.343 61.1415 160.475 61.58C160.599 61.9966 160.603 62.4404 160.485 62.8591C160.367 63.2777 160.133 63.6537 159.81 63.9425L155.192 68.0555C154.724 68.4727 154.349 68.9853 154.092 69.5593C153.836 70.1333 153.703 70.7557 153.703 71.3853V72.4767C153.701 73.1235 153.862 73.7602 154.169 74.3283C154.476 74.8963 154.92 75.3774 155.46 75.7272C155.728 75.901 155.954 76.1339 156.12 76.4083C156.287 76.6827 156.389 76.9915 156.42 77.3115L156.528 78.4012C156.613 79.2833 157.021 80.102 157.673 80.6969C158.325 81.2919 159.174 81.6204 160.054 81.6182H162.757C163.877 81.6178 164.972 81.289 165.91 80.6719C166.847 80.0548 167.585 79.176 168.035 78.143L168.198 77.77C168.357 77.4002 168.616 77.083 168.946 76.8548C169.276 76.6266 169.663 76.4966 170.062 76.4797L170.697 76.4507C170.8 76.4461 170.903 76.4386 171.005 76.4281L172.354 76.2913C172.384 76.8196 172.4 77.3249 172.4 77.7962ZM172.195 74.3677L170.814 74.5077C170.746 74.5146 170.679 74.5194 170.61 74.5226L169.975 74.5517C169.218 74.5837 168.486 74.8298 167.861 75.2619C167.237 75.6939 166.745 76.2944 166.444 76.9946L166.282 77.3676C165.981 78.0575 165.488 78.6444 164.862 79.0566C164.236 79.4688 163.505 79.6885 162.757 79.6888H160.054C159.649 79.6897 159.259 79.5385 158.959 79.2647C158.659 78.991 158.472 78.6145 158.433 78.2088L158.325 77.119C158.266 76.5104 158.071 75.9232 157.755 75.4014C157.438 74.8796 157.009 74.4369 156.498 74.1064C156.227 73.9309 156.004 73.6896 155.85 73.4046C155.696 73.1197 155.616 72.8003 155.617 72.4759V71.3845C155.617 71.0281 155.692 70.6758 155.837 70.3508C155.983 70.0259 156.195 69.7357 156.46 69.4995L161.078 65.3865C161.675 64.8528 162.108 64.1581 162.325 63.3846C162.543 62.611 162.537 61.7909 162.306 61.021C162.067 60.225 161.603 59.5161 160.972 58.9803C160.34 58.4445 159.568 58.1049 158.748 58.0027L158.282 57.9448C157.634 57.8647 157.039 57.5466 156.61 57.0514C156.382 56.7896 156.241 56.4633 156.206 56.1173C156.17 55.7713 156.243 55.4228 156.412 55.1199L158.939 50.7567C160.761 51.9849 162.466 53.3789 164.034 54.9213C163.568 55.7371 163.295 56.6499 163.235 57.5891C163.161 59.0446 163.596 60.4802 164.465 61.6457L168.344 66.8709C168.433 66.9909 168.549 67.0884 168.682 67.1556C168.815 67.2227 168.962 67.2577 169.111 67.2577C169.26 67.2577 169.406 67.2227 169.539 67.1556C169.673 67.0884 169.788 66.9909 169.877 66.8709L170.591 65.91C171.353 68.6806 171.889 71.5092 172.195 74.3677ZM172.223 60.4889L169.111 64.6815L166.005 60.4981C165.405 59.6996 165.1 58.7146 165.145 57.7138C165.268 55.811 166.785 53.8429 169.111 53.8429C171.436 53.8429 172.953 55.811 173.076 57.7161C173.131 58.7135 172.828 59.6974 172.223 60.4891L172.223 60.4889Z" fill="#18B025"/>
</g>
<defs>
<clipPath id="clip0_37:253">
<rect width="71" height="81" fill="white" transform="translate(104 34.2534)"/>
</clipPath>
</defs>
</svg>
