<svg width="17" height="17" viewBox="0 0 17 17" fill="none" xmlns="http://www.w3.org/2000/svg">
<path d="M7.04046 9.96069C5.41784 8.33807 5.05146 6.71545 4.96881 6.06535C4.94571 5.8856 5.00757 5.70533 5.13617 5.57763L6.44927 4.26511C6.64243 4.07207 6.67671 3.77123 6.53193 3.53968L4.44122 0.29327C4.28104 0.0368779 3.95216 -0.0556567 3.68179 0.0795981L0.325461 1.6603C0.106823 1.76796 -0.0217771 2.00026 0.00304681 2.2427C0.178909 3.91339 0.907271 8.02035 4.94331 12.0567C8.97934 16.093 13.0857 16.8211 14.7573 16.9969C14.9997 17.0217 15.232 16.8932 15.3397 16.6745L16.9204 13.3182C17.0551 13.0484 16.9632 12.7204 16.7079 12.5599L13.4615 10.4698C13.2301 10.3249 12.9292 10.3589 12.736 10.5519L11.4235 11.865C11.2958 11.9936 11.1156 12.0554 10.9358 12.0323C10.2857 11.9497 8.66308 11.5833 7.04046 9.96069Z" fill="#EF6B01"/>
<path d="M13.483 9.08584C13.1593 9.08584 12.8968 8.82338 12.8968 8.49963C12.8941 6.07262 10.9273 4.10582 8.50027 4.10308C8.17652 4.10308 7.91406 3.84062 7.91406 3.51687C7.91406 3.19312 8.17652 2.93066 8.50027 2.93066C11.5745 2.93406 14.0658 5.42538 14.0692 8.49963C14.0692 8.82338 13.8068 9.08584 13.483 9.08584Z" fill="#EF6B01"/>
<path d="M16.4141 9.08621C16.0903 9.08621 15.8279 8.82375 15.8279 8.5C15.8233 4.45496 12.5453 1.17694 8.50027 1.17241C8.17652 1.17241 7.91406 0.90996 7.91406 0.586207C7.91406 0.262454 8.17652 0 8.50027 0C13.1926 0.00516913 16.9951 3.80772 17.0003 8.5C17.0003 8.65547 16.9385 8.80458 16.8286 8.91451C16.7187 9.02445 16.5695 9.08621 16.4141 9.08621Z" fill="#EF6B01"/>
</svg>
