<svg width="136" height="120" viewBox="0 0 136 120" fill="none" xmlns="http://www.w3.org/2000/svg">
<path d="M80.988 15.9796C80.988 27.3711 80.988 38.7427 80.988 50.1341C80.9286 50.3912 80.8692 50.6483 80.8296 50.9054C80.5525 53.0611 80.4535 55.2365 79.9983 57.3527C75.3267 78.9884 62.5195 93.5046 41.6361 100.842C41.0027 101.059 40.1713 101.059 39.5378 100.862C35.2226 99.5563 31.0657 97.7566 27.2651 95.3241C9.54884 83.9129 0.383886 67.6761 0.0671704 46.5941C-0.0713926 36.9035 0.0473757 27.1931 0.0473757 17.5024C0.0473757 14.9117 1.0767 13.9426 3.66981 13.8042C12.043 13.3889 18.4565 9.61151 22.8113 2.43254C23.4249 1.42393 24.0584 0.533973 25.1273 0C35.4007 0 45.6544 0 55.9279 0C57.0364 0.533973 57.6698 1.48326 58.2834 2.51165C62.5987 9.55218 68.9132 13.3098 77.128 13.7646C78.9095 13.8635 80.216 14.3579 80.988 15.9796ZM11.8846 37.9714C11.8846 38.4065 11.8648 38.8218 11.8846 39.2569C12.0232 43.8847 11.7065 48.5915 12.3993 53.1402C14.9132 69.2781 23.7417 80.8079 38.5679 87.7693C39.8941 88.4022 41.1214 88.422 42.4279 87.7891C59.3722 79.6411 68.3392 66.1731 69.0914 47.4049C69.3685 40.5819 69.1507 33.7194 69.1309 26.8766C69.1309 25.2154 68.4381 24.2661 66.8348 23.7124C60.7182 21.616 55.5518 18.1155 51.3949 13.1713C50.5635 12.1825 49.5144 11.6881 48.2079 11.7079C43.0415 11.7276 37.8751 11.7276 32.7087 11.7079C31.422 11.7079 30.4521 12.1627 29.6207 13.1516C25.4638 18.1155 20.3172 21.616 14.2006 23.7124C12.4983 24.3057 11.8648 25.2154 11.8648 27.0546C11.8846 30.6738 11.8846 34.3325 11.8846 37.9714Z" fill="#E9E9E9"/>
<path d="M63.0518 39.3754C63.0518 43.0341 63.3487 46.6928 62.9924 50.312C61.7651 63.4042 55.411 73.3717 44.2468 80.3133C43.7717 80.61 43.2373 80.8078 42.8018 81.144C41.2776 82.291 39.892 82.1328 38.249 81.1835C26.867 74.7165 20.0972 65.0852 18.1969 52.1117C17.8604 49.8769 17.8406 47.5828 17.8208 45.3282C17.7615 40.1269 17.8208 34.9256 17.7812 29.7441C17.7812 29.0519 17.999 28.7157 18.6522 28.4586C24.2145 26.1843 29.0049 22.7629 33.1024 18.3725C33.3993 18.0363 33.9733 17.799 34.4286 17.799C38.5063 17.7594 42.584 17.7594 46.6617 17.799C47.0774 17.799 47.6119 18.0363 47.9088 18.3527C52.0459 22.8025 56.8758 26.2436 62.5173 28.518C63.0716 28.7355 63.2299 29.0322 63.2299 29.6057C63.2101 32.8689 63.2101 36.1122 63.2101 39.3754C63.1705 39.3754 63.1112 39.3754 63.0518 39.3754ZM35.9528 55.4539C34.6463 54.1289 33.4983 52.9621 32.3304 51.7952C31.1625 50.6284 30.0144 49.4418 28.8267 48.3145C27.54 47.0884 25.7387 47.0884 24.5708 48.275C23.4227 49.422 23.3832 51.2415 24.5906 52.4479C27.639 55.533 30.7072 58.6182 33.815 61.6638C35.0422 62.8702 36.7644 62.8702 37.9719 61.6638C44.128 55.533 50.2644 49.4022 56.4007 43.2517C57.1727 42.4804 57.4499 41.5113 57.1727 40.4434C56.5591 38.1295 53.867 37.4768 52.1053 39.2172C47.5525 43.7461 43.0195 48.275 38.4865 52.8236C37.6749 53.6345 36.8634 54.5046 35.9528 55.4539Z" fill="#E9E9E9"/>
<path d="M134.986 97.8537C134.685 99.3925 134.511 100.979 134.051 102.47C131.277 111.306 125.349 116.811 116.329 118.937C115.886 119.048 115.378 119.016 114.935 118.921C110.766 118.048 107.104 116.16 103.981 113.257C103.553 112.861 103.157 112.718 102.586 112.718C88.1617 112.734 73.7371 112.734 59.3124 112.734C55.8885 112.734 53.9864 110.83 53.9864 107.404C53.9864 99.329 53.9864 91.2544 53.9864 83.1798C53.9864 82.9101 53.9705 82.6563 54.0022 82.3866C54.0815 81.53 54.7631 80.9113 55.5715 80.9113C56.3958 80.9113 57.0615 81.5458 57.1408 82.4025C57.1725 82.6722 57.1566 82.926 57.1566 83.1957C57.1566 91.3179 57.1566 99.4559 57.1566 107.578C57.1566 108.99 57.7114 109.577 59.0905 109.577C72.7226 109.577 86.3547 109.577 99.9868 109.577C100.161 109.577 100.351 109.577 100.7 109.577C97.2921 104.691 96.0557 99.3132 96.4361 93.4277C96.0557 93.4277 95.7545 93.4277 95.4375 93.4277C85.578 93.4277 75.7185 93.4277 65.859 93.4277C65.5737 93.4277 65.2725 93.4436 64.9872 93.396C64.1946 93.2691 63.6081 92.5711 63.6398 91.7938C63.6715 91.0323 64.2422 90.3978 65.0189 90.2867C65.3042 90.255 65.6054 90.2709 65.8907 90.2709C75.7026 90.2709 85.5146 90.2709 95.3107 90.2709C95.6277 90.2709 95.9447 90.2709 96.3251 90.2709C96.3251 88.399 96.3251 86.5429 96.3251 84.5758C96.0398 84.5758 95.7386 84.5758 95.4375 84.5758C85.578 84.5758 75.7185 84.5758 65.859 84.5758C64.4165 84.5758 63.6715 84.0364 63.6557 83.0053C63.6557 81.9583 64.4007 81.4189 65.8273 81.4189C75.6551 81.4189 85.4987 81.4189 95.3265 81.4189C95.6435 81.4189 95.9606 81.4189 96.3568 81.4189C96.3885 80.2609 97.1494 79.8326 98.1322 79.5311C101.762 78.4366 105.376 77.2944 108.99 76.168C109.371 76.057 109.688 75.9777 109.688 75.4066C109.656 68.7597 109.672 62.1128 109.672 55.4501C109.672 55.3707 109.64 55.3073 109.609 55.1328C109.339 55.1328 109.054 55.1328 108.784 55.1328C106.042 55.1328 103.3 55.1328 100.557 55.1328C97.6567 55.1328 95.7704 53.2291 95.7545 50.3102C95.7545 47.3596 95.7545 44.3931 95.7386 41.4424C95.7386 41.3948 95.7069 41.3472 95.6594 41.1886C95.4058 41.1886 95.1363 41.1886 94.851 41.1886C82.9784 41.1886 71.1216 41.1886 59.249 41.1886C57.648 41.1727 57.1566 41.6804 57.1566 43.3143C57.1566 51.389 57.1566 59.4636 57.1566 67.5382C57.1566 67.7762 57.1725 68.0141 57.1566 68.2521C57.0932 69.1563 56.4433 69.8226 55.5874 69.8226C54.7314 69.8384 54.0656 69.188 54.0022 68.2838C53.9864 68.0458 54.0022 67.8079 54.0022 67.5699C53.9864 59.6222 53.9864 51.6745 53.9864 43.7427C53.9864 40.3954 54.8424 39.158 57.9492 38C71.2326 38 84.5318 38 97.8152 38C98.148 38.2855 98.5126 38.5394 98.8296 38.8566C103.22 43.235 107.58 47.6293 111.986 51.9918C112.589 52.5946 112.858 53.2291 112.858 54.0858C112.842 60.6851 112.842 67.2844 112.842 73.8678C112.842 74.1851 112.842 74.5024 112.842 74.8989C113.508 74.6927 114.094 74.423 114.713 74.3437C115.363 74.2485 116.092 74.1534 116.694 74.3437C122.258 76.0411 127.806 77.7861 133.354 79.5153C134.067 79.7374 134.654 80.0705 135.002 80.7368C134.986 86.4477 134.986 92.1428 134.986 97.8537ZM131.832 82.4183C131.705 82.3708 131.61 82.3232 131.515 82.2914C126.395 80.6892 121.275 79.0711 116.155 77.4847C115.838 77.3895 115.426 77.453 115.093 77.5482C112.05 78.4841 109.006 79.436 105.979 80.3878C103.854 81.0541 101.73 81.7203 99.5747 82.3866C99.5747 82.6246 99.5747 82.8149 99.5747 82.9894C99.5747 87.3995 99.5588 91.7938 99.5747 96.2039C99.6381 105.421 106.01 113.479 114.935 115.685C115.299 115.78 115.727 115.827 116.092 115.748C124.176 114.13 131.024 106.595 131.658 98.3931C131.927 94.9348 131.8 91.4448 131.848 87.9548C131.848 86.1146 131.832 84.2744 131.832 82.4183ZM98.9248 43.5682C98.9248 45.9636 98.9089 48.2638 98.9406 50.5799C98.9565 51.4048 99.5113 51.9125 100.383 51.9125C102.586 51.9283 104.806 51.9125 107.009 51.9125C107.088 51.9125 107.183 51.8649 107.199 51.849C104.457 49.1204 101.73 46.376 98.9248 43.5682Z" fill="#18B025"/>
<path d="M78.8258 70.6156C77.2883 70.6156 75.8458 70.6156 74.4033 70.6156C73.1035 70.6156 72.517 70.0286 72.5012 68.7437C72.5012 66.3958 72.4853 64.048 72.5012 61.7002C72.5012 60.4628 73.1035 59.86 74.3558 59.86C75.7982 59.86 77.2566 59.86 78.8258 59.86C78.8258 59.511 78.8258 59.1779 78.8258 58.8447C78.8258 57.6391 78.81 56.4176 78.8258 55.2119C78.8417 54.2284 79.4282 53.5621 80.3634 53.5463C82.9155 53.5145 85.4834 53.5145 88.0354 53.5463C88.9707 53.5621 89.5572 54.2284 89.573 55.2119C89.5889 56.7349 89.573 58.2578 89.573 59.8759C91.0789 59.8759 92.5213 59.8759 93.9638 59.8759C95.327 59.8759 95.8977 60.4311 95.8977 61.7795C95.8977 64.0956 95.8977 66.4276 95.8977 68.7437C95.8977 70.0445 95.3112 70.6314 94.0114 70.6314C92.5689 70.6314 91.1264 70.6314 89.573 70.6314C89.573 72.0592 89.573 73.4552 89.573 74.8353C89.573 76.4534 89.0658 76.9611 87.4489 76.9611C85.2932 76.9611 83.1215 76.9611 80.9658 76.9611C79.3331 76.9611 78.8258 76.4534 78.8258 74.8512C78.8258 73.471 78.8258 72.1068 78.8258 70.6156ZM86.4186 73.7407C86.4186 72.2971 86.4186 70.9011 86.4186 69.5051C86.4186 67.9822 86.9417 67.4428 88.4476 67.4428C89.8583 67.4428 91.2691 67.4428 92.6957 67.4428C92.6957 65.9199 92.6957 64.4922 92.6957 63.0169C91.3008 63.0169 89.9534 63.0169 88.6219 63.0169C86.8941 63.0169 86.4186 62.541 86.4186 60.8118C86.4186 59.4475 86.4186 58.0991 86.4186 56.7507C84.881 56.7507 83.4544 56.7507 81.9961 56.7507C81.9961 57.9246 81.9961 59.0192 81.9961 60.1297C81.9961 62.7948 81.7742 63.0169 79.127 63.0169C77.9857 63.0169 76.8286 63.0169 75.7031 63.0169C75.7031 64.5557 75.7031 65.9675 75.7031 67.4428C77.1932 67.4428 78.6356 67.4428 80.0781 67.4428C81.4255 67.4428 81.9961 68.0139 81.9961 69.3782C81.9961 70.8218 81.9961 72.2654 81.9961 73.7407C83.4861 73.7407 84.8969 73.7407 86.4186 73.7407Z" fill="#EF6B01"/>
<path d="M74.7524 102.28C71.6138 102.28 68.4911 102.28 65.3526 102.28C64.3381 102.28 63.6406 101.613 63.6406 100.709C63.6406 99.8049 64.3381 99.1545 65.3526 99.1228C65.5586 99.1228 65.7805 99.1228 65.9866 99.1228C71.804 99.1228 77.6214 99.1228 83.4389 99.1228C83.6449 99.1228 83.8668 99.1228 84.0729 99.1228C85.0874 99.1545 85.7849 99.8049 85.7849 100.709C85.7849 101.613 85.0874 102.28 84.0729 102.28C80.9661 102.296 77.8592 102.28 74.7524 102.28Z" fill="#18B025"/>
<path d="M128.805 91.5557C128.662 94.1097 128.789 96.7114 128.298 99.1861C126.982 105.881 122.908 110.291 116.409 112.401C115.965 112.543 115.41 112.527 114.951 112.401C107.897 110.402 102.793 103.707 102.714 96.3624C102.682 92.9517 102.698 89.5569 102.714 86.1462C102.714 85.0833 103.062 84.5915 104.061 84.2743C107.723 83.1321 111.4 81.974 115.078 80.8636C115.458 80.7525 115.934 80.7525 116.298 80.8636C119.976 81.974 123.637 83.1321 127.315 84.2743C128.329 84.5915 128.662 85.0833 128.662 86.1462C128.662 87.9388 128.662 89.7314 128.662 91.524C128.71 91.5398 128.757 91.5557 128.805 91.5557ZM105.884 92.222C105.9 93.6973 105.868 95.1726 105.9 96.6479C106.058 102.153 109.894 107.356 115.109 109.101C115.474 109.228 115.949 109.228 116.314 109.101C121.624 107.245 125.365 102.105 125.492 96.4576C125.555 93.5386 125.492 90.6039 125.524 87.6691C125.524 87.1297 125.302 86.9552 124.858 86.8124C121.989 85.9399 119.136 85.0198 116.266 84.1473C115.934 84.0522 115.521 84.0363 115.204 84.1473C112.288 85.0357 109.387 85.9717 106.47 86.86C106.027 86.9869 105.9 87.1773 105.9 87.6215C105.9 89.1603 105.884 90.6832 105.884 92.222Z" fill="#18B025"/>
<path d="M114.221 97.3302C115.87 95.6804 117.407 94.1416 118.945 92.6028C119.183 92.3648 119.42 92.111 119.674 91.8889C120.34 91.302 121.291 91.3337 121.877 91.9365C122.464 92.5393 122.495 93.4118 121.925 94.0781C121.513 94.554 121.037 94.9824 120.593 95.4265C118.945 97.0922 117.28 98.7421 115.616 100.392C114.665 101.328 113.857 101.328 112.89 100.376C111.828 99.3131 110.766 98.2661 109.704 97.1874C108.879 96.3625 108.816 95.4424 109.497 94.7603C110.179 94.0781 111.114 94.1257 111.923 94.9506C112.699 95.7121 113.429 96.5053 114.221 97.3302Z" fill="#18B025"/>
</svg>
