<svg width="125" height="111" viewBox="0 0 125 111" fill="none" xmlns="http://www.w3.org/2000/svg">
<path d="M0 56.1326C4.56232 57.4047 9.12463 58.6769 13.6869 59.9317C14.1919 60.0711 14.279 60.3325 14.2964 60.7856C14.3835 62.9291 14.8014 64.9681 15.9507 66.8328C17.4831 69.3423 19.2418 70.1614 22.1325 69.6908C24.9534 69.2377 27.7744 68.7672 30.6128 68.2967C31.9362 68.0701 33.1029 67.495 33.9562 66.4494C34.3393 65.9789 34.6875 65.944 35.2099 66.1183C36.8468 66.6934 38.4662 67.2859 40.1379 67.7564C41.1827 68.0527 42.2798 68.2618 43.3594 68.2792C48.566 68.3315 53.7726 68.2967 58.9967 68.3141C59.4668 68.3141 59.9718 68.4186 60.3897 68.6278C69.6537 73.3679 78.9002 78.1604 88.1641 82.9005C88.791 83.2142 89.0174 83.5802 89 84.2947C88.9478 85.8631 88.9826 87.4141 88.9826 88.9826C76.8803 88.9826 64.7605 88.9826 52.6582 88.9826C52.3622 88.8083 52.0835 88.6166 51.7701 88.4598C34.5134 79.8508 17.2567 71.207 0 62.5632C0 60.4196 0 58.2761 0 56.1326Z" fill="#E9E9E9"/>
<path d="M0 29.8699C2.94287 30.3056 5.88574 30.7412 8.84602 31.1769C9.45549 31.264 10.0475 31.386 10.657 31.4383C12.8337 31.63 14.2964 30.323 14.2964 28.1272C14.3138 22.0626 14.2964 16.0154 14.2964 9.95075C14.2964 8.03377 14.2964 8.01635 16.1074 7.49354C16.5253 7.37155 16.9258 7.26698 17.5005 7.11014C17.5005 7.52839 17.5005 7.8595 17.5005 8.19062C17.5005 15.3706 17.5005 22.5679 17.5005 29.7479C17.5005 32.1528 18.3712 33.2159 20.722 33.5818C23.2121 33.9652 25.7022 34.3312 28.1923 34.6623C30.0033 34.9063 31.6228 33.5818 31.7969 31.7171C31.8317 31.4035 31.8143 31.0723 31.8143 30.7587C31.8143 21.7489 31.8143 12.7391 31.7969 3.72929C31.7969 3.06706 31.9536 2.73595 32.6153 2.59653C33.5382 2.38741 34.4437 2.09115 35.2796 1.84717C34.6353 7.54582 35.0184 13.2445 34.9836 18.9257C34.9139 31.508 34.9487 44.0729 34.9661 56.6553C34.9661 58.6768 35.0532 60.6809 35.1055 62.7547C35.0706 62.7547 34.8791 62.7373 34.7049 62.685C32.3716 62.0054 30.0556 61.2909 27.7222 60.6286C27.1824 60.4718 27.0082 60.2278 26.9908 59.6702C26.9211 57.3349 26.3291 55.1565 24.9186 53.2396C22.6026 50.1027 18.8587 50.033 16.5253 53.1873C15.7417 54.2678 15.2367 55.5574 14.5402 56.8818C9.80376 55.5748 4.928 54.2155 0.0348268 52.8562C0 45.1708 0 37.5204 0 29.8699Z" fill="#E9E9E9"/>
<path d="M0 12.3034C3.67423 11.2055 7.34846 10.1076 11.0924 8.97485C11.0924 15.4577 11.0924 21.8535 11.0924 28.284C8.21914 27.8484 5.39816 27.4127 2.57719 26.977C1.72393 26.8376 0.870671 26.6982 0.0174134 26.5413C0 21.8186 0 17.061 0 12.3034Z" fill="#E9E9E9"/>
<path d="M44.4219 0C47.0687 0 49.7156 0 52.4495 0C52.4495 1.4813 52.4495 2.92775 52.4495 4.37419C52.4669 6.65714 53.7206 7.91189 56.0018 7.92931C61.0343 7.94674 66.0842 7.94674 71.1166 7.92931C73.3804 7.92931 74.669 6.62228 74.6864 4.37419C74.7038 2.98003 74.7038 1.58586 74.7038 0.209125C74.7038 0.156844 74.7386 0.104562 74.7909 0.0174271C77.4029 0.0174271 80.0149 0.0174271 82.6095 0.0174271C82.6095 11.9724 82.6269 23.9274 82.5921 35.8823C82.5921 37.1719 82.505 38.4964 82.209 39.7511C81.4776 42.9054 79.388 44.4913 76.1491 44.4913C68.1564 44.5087 60.1636 44.4913 52.1708 44.4913C51.4221 44.4913 50.6559 44.5261 49.9245 44.439C46.9642 44.0556 45.101 42.0515 44.6657 38.8449C44.5438 37.9039 44.4915 36.9454 44.4915 35.9869C44.4741 24.485 44.4915 12.9832 44.4741 1.4813C44.4915 0.993342 44.4393 0.540239 44.4219 0ZM78.0994 19.832C77.6467 19.2918 77.3681 18.7341 76.8979 18.4378C76.184 18.0022 75.5222 18.3158 74.965 18.8909C69.0096 24.851 63.0542 30.811 57.0988 36.7885C56.2978 37.5902 56.2456 38.5835 56.9247 39.2457C57.5864 39.8731 58.5267 39.8208 59.3104 39.054C60.181 38.2001 61.0343 37.3462 61.8875 36.4748C66.9026 31.4558 71.9177 26.4368 76.9327 21.4004C77.3507 20.9996 77.6467 20.4594 78.0994 19.832ZM70.9077 13.3666C70.4724 12.896 70.1589 12.3384 69.6888 12.077C69.027 11.711 68.3653 11.9898 67.8255 12.5475C61.8527 18.5424 55.8799 24.5199 49.9071 30.4974C49.1409 31.2641 49.1235 32.2226 49.7852 32.8849C50.4469 33.5297 51.3524 33.5297 52.1012 32.7803C58.1088 26.7854 64.1165 20.7905 70.0893 14.7607C70.4027 14.4122 70.5768 13.9242 70.9077 13.3666Z" fill="#E9E9E9"/>
<path d="M85.865 0.261475C87.763 1.1154 88.7904 2.49214 88.9645 4.49625C88.982 4.79251 88.982 5.07134 88.982 5.3676C88.982 23.4917 88.982 41.5985 88.982 59.7226C88.982 63.2952 87.1013 65.1773 83.5141 65.1773C70.1929 65.1773 56.8716 65.1773 43.5503 65.1773C40.0328 65.1773 38.1348 63.2777 38.1348 59.74C38.1348 41.5985 38.1348 23.4569 38.1348 5.2979C38.1348 3.10209 38.901 1.41166 40.9383 0.418318C41.0428 0.366037 41.1473 0.34861 41.3388 0.278902C41.3388 0.64487 41.3388 0.94113 41.3388 1.25482C41.3388 12.9309 41.3214 24.6245 41.3562 36.3006C41.3562 37.8517 41.5304 39.4375 41.9309 40.9362C43.0279 45.0839 46.3017 47.5934 50.5854 47.6282C59.2224 47.6805 67.8421 47.6805 76.4791 47.6282C81.2156 47.5934 84.6286 44.5959 85.4819 39.8209C85.6908 38.6359 85.7953 37.3985 85.7953 36.1961C85.8127 24.3108 85.7953 12.4256 85.7953 0.540308C85.7953 0.470599 85.8301 0.418318 85.865 0.261475ZM50.0281 50.8697C46.946 50.8871 44.4733 53.3792 44.4907 56.4638C44.5081 59.4961 46.9982 61.9707 50.0281 61.9707C53.0929 61.9881 55.6004 59.4786 55.6004 56.4115C55.6178 53.3269 53.1103 50.8522 50.0281 50.8697ZM77.106 50.8697C74.0238 50.8522 71.5163 53.3095 71.4989 56.394C71.4815 59.4612 73.989 61.9707 77.0712 61.9707C80.1185 61.9707 82.5738 59.5309 82.6086 56.4638C82.6435 53.3617 80.2056 50.8871 77.106 50.8697Z" fill="#E9E9E9"/>
<path d="M28.5754 3.81665C28.5754 13.0878 28.5754 22.2196 28.5754 31.5083C25.9286 31.1423 23.3514 30.7589 20.6698 30.3929C20.6698 30.0967 20.6698 29.8178 20.6698 29.539C20.6698 22.0279 20.6872 14.5343 20.6523 7.02323C20.6523 6.34357 20.8787 6.08217 21.5056 5.9079C23.8216 5.22824 26.1376 4.53116 28.5754 3.81665Z" fill="#E9E9E9"/>
<path d="M55.6367 4.65303C55.6367 3.06716 55.6367 1.56844 55.6367 0C60.8956 0 66.1544 0 71.4481 0C71.4481 1.55101 71.4481 3.06716 71.4481 4.65303C66.1718 4.65303 60.9478 4.65303 55.6367 4.65303Z" fill="#E9E9E9"/>
<path d="M17.5 60.3325C17.5 58.5898 17.8134 56.9342 18.7538 55.4355C19.9379 53.5708 21.4877 53.5185 22.5499 55.4529C24.3435 58.6944 24.3609 62.0578 22.5499 65.2992C21.4703 67.2162 19.9205 67.1813 18.7538 65.3166C17.7786 63.7831 17.5 62.0926 17.5 60.3325Z" fill="#E9E9E9"/>
<path d="M30.7692 65.0552C29.2194 65.3166 27.6522 65.578 25.9805 65.8569C26.2417 65.0727 26.4506 64.393 26.6944 63.6262C28.0701 64.027 29.4109 64.4453 30.7692 64.8461C30.7692 64.8984 30.7692 64.9681 30.7692 65.0552Z" fill="#E9E9E9"/>
<path d="M50.0808 58.7641C48.7574 58.7815 47.6778 57.7359 47.6604 56.4288C47.643 55.1392 48.7052 54.0413 50.0112 54.0239C51.3172 54.0065 52.4142 55.0521 52.4316 56.3591C52.4665 57.6661 51.3868 58.7466 50.0808 58.7641Z" fill="#E9E9E9"/>
<path d="M74.7034 56.3418C74.7382 55.0173 75.8004 54.0065 77.1238 54.0414C78.4298 54.0763 79.4572 55.1567 79.4224 56.4812C79.3876 57.8057 78.3253 58.799 76.9845 58.7816C75.6785 58.7293 74.6859 57.6837 74.7034 56.3418Z" fill="#E9E9E9"/>
<path d="M96.0684 32C96.8657 32.0916 97.663 32.1679 98.4446 32.29C109.951 34.1366 117.908 40.3479 122.16 50.9391C124.552 56.891 124.552 62.965 122.551 69.0542C121.441 72.4116 119.847 75.5249 117.877 78.4703C111.326 88.207 104.76 97.9131 98.1632 107.619C97.6786 108.336 97.022 109.038 96.2872 109.496C94.8021 110.427 92.8948 110.03 91.7067 108.718C91.3784 108.352 91.0814 107.97 90.8156 107.573C84.234 97.8673 77.6836 88.1612 71.1333 78.4703C68.3036 74.2735 66.2869 69.7409 65.3802 64.781C64.5985 60.4621 65.0519 56.2195 66.412 52.0837C68.0379 47.1086 70.8519 42.8812 74.8227 39.4017C79.2938 35.5101 84.4841 33.1446 90.4091 32.3052C91.2533 32.1831 92.0975 32.0916 92.9417 32C93.9891 32 95.0209 32 96.0684 32ZM94.5207 106.765C94.849 106.322 95.0835 106.032 95.2867 105.712C98.8355 100.462 102.4 95.2271 105.933 89.962C109.497 84.6358 113.124 79.3402 116.564 73.9225C118.752 70.4887 120.019 66.6429 120.394 62.5987C120.941 56.7689 119.471 51.3512 116.032 46.605C109.888 38.1503 101.399 34.4723 90.8 35.6932C86.6259 36.1663 82.8426 37.7382 79.4189 40.1342C74.7758 43.3848 71.5397 47.6732 69.7575 52.9841C68.6163 56.3721 68.1786 59.8517 68.6945 63.4228C69.3823 68.2148 71.3052 72.5337 73.9942 76.5474C80.5914 86.3298 87.2043 96.097 93.8328 105.879C94.0048 106.154 94.2236 106.398 94.5207 106.765Z" fill="#18B025"/>
<path d="M94.5005 76.0588C85.8865 76.0588 78.8828 69.2218 78.8985 60.7977C78.9141 52.404 85.9647 45.5365 94.5474 45.567C103.13 45.5975 110.103 52.4345 110.118 60.7977C110.118 69.2218 103.114 76.0588 94.5005 76.0588ZM94.5005 72.6709C101.176 72.6709 106.663 67.2989 106.648 60.7824C106.632 54.2964 101.192 48.9702 94.5317 48.9397C87.8876 48.8939 82.3534 54.2811 82.3378 60.7977C82.3378 67.3142 87.8251 72.6709 94.5005 72.6709Z" fill="#EF6B01"/>
</svg>
