<svg width="73" height="67" viewBox="0 0 73 67" fill="none" xmlns="http://www.w3.org/2000/svg">
<path d="M68.4375 66.6323C47.1506 66.6323 25.8494 66.6323 4.5625 66.6323C3.47891 66.307 3.15098 65.5784 3.15098 64.5895C3.16523 53.9721 3.16523 43.3546 3.16523 32.7371C3.16523 32.4639 3.16523 32.1907 3.16523 31.8524C1.91055 31.8263 0.58457 32.0736 0 30.7204C0 26.6477 0 22.5621 0 18.4895C0.384961 17.5917 1.15488 17.3314 2.13867 17.3314C9.03945 17.3444 15.9545 17.3444 22.8553 17.3444C23.0976 17.3444 23.34 17.3444 23.4684 17.3444C21.8572 16.2515 20.1605 15.2496 18.6777 14.0265C14.0439 10.2141 15.3271 3.09676 21.0303 0.806718C21.9855 0.416371 23.0691 0.273243 24.0814 0.0130116C24.5519 0.0130116 25.0367 0.0130116 25.5072 0.0130116C25.6355 0.0520463 25.7781 0.104093 25.9064 0.117104C28.2019 0.364324 30.084 1.30116 31.6238 2.86255C33.6057 4.87934 34.9744 7.20842 36.058 9.69363C36.1721 9.95386 36.3004 10.2271 36.4857 10.6175C36.6711 10.1881 36.7851 9.90182 36.9277 9.62857C37.6976 8.21031 38.3678 6.75301 39.266 5.39981C40.4209 3.64324 41.7469 1.96475 43.8428 1.05394C44.9834 0.559498 46.2523 0.338301 47.4642 0C47.9347 0 48.4195 0 48.89 0C49.0469 0.0390348 49.2037 0.104093 49.3605 0.117104C56.0902 0.923823 59.398 7.89803 55.3916 12.9075C54.0371 14.599 52.1408 15.744 50.1875 16.7849C49.9166 16.9281 49.6457 17.0712 49.3748 17.2013C49.389 17.2404 49.4033 17.2924 49.4318 17.3314C49.6885 17.3314 49.9451 17.3314 50.2017 17.3314C57.0883 17.3314 63.9605 17.3314 70.847 17.3184C71.8451 17.3184 72.6008 17.5787 72.9857 18.4765C72.9857 22.5491 72.9857 26.6347 72.9857 30.7073C72.4011 32.0605 71.0752 31.7873 69.8205 31.8524C69.8205 32.1646 69.8205 32.4379 69.8205 32.7111C69.8205 43.3286 69.8205 53.946 69.8347 64.5635C69.849 65.5784 69.5211 66.307 68.4375 66.6323ZM6.40176 63.6397C13.7873 63.6397 21.1443 63.6397 28.5014 63.6397C28.5014 53.0222 28.5014 42.4568 28.5014 31.8914C21.1016 31.8914 13.7445 31.8914 6.40176 31.8914C6.40176 42.5089 6.40176 53.0612 6.40176 63.6397ZM66.5982 63.6527C66.5982 53.0222 66.5982 42.4698 66.5982 31.8914C59.1984 31.8914 51.8556 31.8914 44.4986 31.8914C44.4986 42.5089 44.4986 53.0743 44.4986 63.6527C51.8842 63.6527 59.2269 63.6527 66.5982 63.6527ZM31.7949 31.8784C31.7949 42.5089 31.7949 53.0612 31.7949 63.6397C34.9601 63.6397 38.0826 63.6397 41.2051 63.6397C41.2051 53.0222 41.2051 42.4568 41.2051 31.8784C38.0398 31.8784 34.9316 31.8784 31.7949 31.8784ZM3.19375 28.8857C11.6486 28.8857 20.0607 28.8857 28.5014 28.8857C28.5014 26.0102 28.5014 23.1606 28.5014 20.3111C20.0465 20.3111 11.6344 20.3111 3.19375 20.3111C3.19375 23.1866 3.19375 26.0232 3.19375 28.8857ZM44.4844 28.8857C52.9392 28.8857 61.3513 28.8857 69.7777 28.8857C69.7777 25.9971 69.7777 23.1606 69.7777 20.3111C61.3086 20.3111 52.8965 20.3111 44.4844 20.3111C44.4844 23.1997 44.4844 26.0232 44.4844 28.8857ZM34.9174 17.4876C34.9031 17.1102 34.9031 16.9801 34.8889 16.85C34.4469 13.5581 33.2635 10.5003 31.4955 7.62479C30.64 6.23255 29.6705 4.87934 28.2162 3.90348C26.4625 2.73243 24.5234 2.53726 22.5559 3.30494C20.5455 4.09865 19.3621 5.56896 19.1197 7.59877C18.8773 9.71965 19.9182 11.3201 21.6719 12.5952C24.2525 14.4819 27.1896 15.705 30.3406 16.5247C31.7949 16.9281 33.3062 17.1623 34.9174 17.4876ZM37.9543 17.3705C38.5816 17.3184 38.9951 17.3314 39.3801 17.2404C41.0767 16.85 42.8019 16.5247 44.4558 16.0042C47.2504 15.1325 49.8881 13.9094 52.041 12.0227C53.8517 10.4353 54.4221 8.48355 53.5523 6.32363C52.7254 4.28081 51.0287 3.10977 48.6334 2.9146C46.3379 2.73243 44.6127 3.7083 43.2439 5.29571C41.0767 7.79394 39.6937 10.6565 38.7955 13.7142C38.4533 14.8722 38.2537 16.0563 37.9543 17.3705ZM31.7807 28.8857C34.9316 28.8857 38.0541 28.8857 41.1908 28.8857C41.1908 25.9971 41.1908 23.1606 41.1908 20.3111C38.0256 20.3111 34.9031 20.3111 31.7807 20.3111C31.7807 23.1866 31.7807 26.0232 31.7807 28.8857Z" fill="white"/>
</svg>
